<?xml version="1.0" encoding="UTF-8" standalone="no"?>
<svg
   xmlns:dc="http://purl.org/dc/elements/1.1/"
   xmlns:cc="http://creativecommons.org/ns#"
   xmlns:rdf="http://www.w3.org/1999/02/22-rdf-syntax-ns#"
   xmlns:svg="http://www.w3.org/2000/svg"
   xmlns="http://www.w3.org/2000/svg"
   xmlns:sodipodi="http://sodipodi.sourceforge.net/DTD/sodipodi-0.dtd"
   xmlns:inkscape="http://www.inkscape.org/namespaces/inkscape"
   id="svg3766"
   version="1.1"
   viewBox="0 0 52.917 52.917"
   height="20"
   width="20"
   sodipodi:docname="StackOverflow.svg"
   inkscape:version="0.92.3 (2405546, 2018-03-11)">
  <sodipodi:namedview
     pagecolor="#ffffff"
     bordercolor="#666666"
     borderopacity="1"
     objecttolerance="10"
     gridtolerance="10"
     guidetolerance="10"
     inkscape:pageopacity="0"
     inkscape:pageshadow="2"
     inkscape:window-width="1920"
     inkscape:window-height="1027"
     id="namedview7"
     showgrid="false"
     inkscape:zoom="16.68772"
     inkscape:cx="22.340646"
     inkscape:cy="6.3270934"
     inkscape:window-x="1912"
     inkscape:window-y="-8"
     inkscape:window-maximized="1"
     inkscape:current-layer="layer1" />
  <defs
     id="defs3760" />
  <metadata
     id="metadata3763">
    <rdf:RDF>
      <cc:Work
         rdf:about="">
        <dc:format>image/svg+xml</dc:format>
        <dc:type
           rdf:resource="http://purl.org/dc/dcmitype/StillImage" />
        <dc:title />
      </cc:Work>
    </rdf:RDF>
  </metadata>
  <g
     inkscape:label="Layer 1"
     inkscape:groupmode="layer"
     id="layer1"
     transform="translate(0 -244.08)">
    <path
       inkscape:connector-curvature="0"
       id="path53"
       d="m 23.065173,291.37255 c -18.2485834,-0.0174 -16.9906734,-0.008 -17.5135024,-0.13145 -1.63914,-0.3873 -3.040891,-1.62182 -3.770197,-3.32039 -0.313332,-0.72975 -0.484171,-1.44914 -0.540017,-2.27396 -0.01522,-0.22482 -0.01498,-3.5147 7.99e-4,-10.68402 0.01471,-6.68506 0.01584,-11.85698 0.0032,-14.58224 -0.01108,-2.38674 -0.01164,-4.34864 -0.0013,-4.51184 0.137218,-2.16488 1.286152,-4.09525 3.014913,-5.06549 0.663039,-0.37211 1.306771,-0.56742 2.064861,-0.62647 0.229401,-0.0179 6.4320014,-0.0229 20.5956614,-0.0167 18.60385,0.008 20.2852,0.012 20.48424,0.048 0.67044,0.12122 1.17424,0.30008 1.72096,0.61099 1.47133,0.83672 2.53286,2.39383 2.87192,4.21267 l 0.0507,0.27172 v 15.00927 c 0,10.00524 -0.007,15.11758 -0.0217,15.33413 -0.0558,0.83628 -0.22648,1.54914 -0.55026,2.29802 -0.78895,1.82483 -2.2628,3.05082 -4.07204,3.38725 -0.27861,0.0518 -0.29536,0.052 -3.85892,0.0543 -1.9685,10e-4 -11.18413,-0.005 -20.47918,-0.0138 z m 14.88828,-9.86454 -5.99326,-6.80974 -2.36147,2.67989 c -2.08319,2.3641 -2.3757,2.68736 -2.48227,2.74327 -0.24033,0.12606 -0.52853,0.12195 -0.77911,-0.0111 -0.12198,-0.0648 -0.20352,-0.14835 -0.70971,-0.72745 -0.31454,-0.35984 -1.40562,-1.60458 -2.42462,-2.76609 l -1.85273,-2.11182 -6.06248,6.88833 c -3.33437,3.78859 -6.0624904,6.89647 -6.0624904,6.9064 0,0.01 7.8123204,0.0181 17.3607004,0.0181 h 17.3607 z m 9.85974,6.56994 c 0.92732,-0.38453 1.40756,-1.22523 1.50181,-2.62902 0.0253,-0.37632 0.0309,-30.45858 0.006,-30.45858 -0.009,0 -3.48412,3.94071 -7.72307,8.75713 l -7.70717,8.75713 1.6147,1.84868 c 2.34283,2.68233 12.10269,13.78838 12.1207,13.79251 0.008,0.002 0.0927,-0.0286 0.18737,-0.0679 z m -35.96709,-24.34668 -7.5870434,-8.62064 -0.0054,1.95515 c -0.003,1.07533 -0.0029,8.05153 1.75e-4,15.50267 0.0053,12.73433 0.0078,13.56078 0.04232,13.76822 0.145405,0.87449 0.490734,1.41232 1.095957,1.70688 l 0.158836,0.0773 6.9411024,-7.88448 6.94111,-7.88447 z m 15.20519,12.05484 c 0.0608,-0.0265 0.1561,-0.0866 0.21178,-0.13365 0.0557,-0.047 4.48987,-5.07255 9.85374,-11.16787 l 9.75249,-11.08241 H 26.718393 6.5674916 l 2.424871,2.75133 c 15.9458904,18.0926 17.1879004,19.49721 17.3001904,19.56508 0.0628,0.038 0.15811,0.0835 0.21178,0.10114 0.13361,0.044 0.40752,0.0272 0.54696,-0.0336 z"
       style="fill:#333333;fill-opacity:1;stroke-width:0.02257454" />
  </g>
</svg>
